<?xml version="1.0" encoding="utf-8"?>
<!-- Generator: Adobe Illustrator 17.1.0, SVG Export Plug-In . SVG Version: 6.00 Build 0)  -->
<!DOCTYPE svg PUBLIC "-//W3C//DTD SVG 1.1//EN" "http://www.w3.org/Graphics/SVG/1.1/DTD/svg11.dtd">
<svg version="1.1" id="Layer_1" xmlns="http://www.w3.org/2000/svg" xmlns:xlink="http://www.w3.org/1999/xlink" x="0px" y="0px"
	 viewBox="34 34 32 32" enable-background="new 34 34 32 32" xml:space="preserve">
<path fill="#4A4A4A" d="M49.9,35.2c-8.2,0-14.8,6.6-14.8,14.8s6.6,14.8,14.8,14.8c8.2,0,14.8-6.6,14.8-14.8S58.1,35.2,49.9,35.2z
	 M49.9,63.2c-7.3,0-13.2-5.9-13.2-13.2c0-7.3,5.9-13.2,13.2-13.2c7.3,0,13.2,5.9,13.2,13.2C63.1,57.3,57.2,63.2,49.9,63.2z"/>
<path fill="#4A4A4A" d="M49.9,38.2c-6.5,0-11.8,5.3-11.8,11.8c0,6.5,5.3,11.8,11.8,11.8c6.5,0,11.8-5.3,11.8-11.8
	C61.7,43.5,56.4,38.2,49.9,38.2z M49,56.8c-3.4-0.6-0.6-4.5-0.6-4.5c2.8-4.6-0.8-3.5-0.8-3.5c3.2-3,4.1-0.4,4.1-0.4
	c0.7,0.8-1.8,6.2-1.8,6.2c-0.6,1.3,2,1,2,1C50.7,57.2,49,56.8,49,56.8z M50.4,46.4c-0.9,0-1.6-0.7-1.6-1.6c0-0.9,0.7-1.6,1.6-1.6
	c0.9,0,1.6,0.7,1.6,1.6C52,45.7,51.3,46.4,50.4,46.4z"/>
<rect x="35" y="35" fill="none" width="30" height="30"/>
</svg>
