<?xml version="1.0" encoding="utf-8"?>
<!-- Generator: Adobe Illustrator 17.1.0, SVG Export Plug-In . SVG Version: 6.00 Build 0)  -->
<!DOCTYPE svg PUBLIC "-//W3C//DTD SVG 1.1//EN" "http://www.w3.org/Graphics/SVG/1.1/DTD/svg11.dtd">
<svg version="1.1" id="Layer_1" xmlns="http://www.w3.org/2000/svg" xmlns:xlink="http://www.w3.org/1999/xlink" x="0px" y="0px"
	 viewBox="6.5 12.5 87 75" enable-background="new 6.5 12.5 87 75" xml:space="preserve">
<path d="M13.3,75.1C13.3,75.1,13.3,75.1,13.3,75.1c0.1,0,0.2,0,0.3,0H13.3z"/>
<path fill="#F2733F" d="M83.5,28.9h-1v-2.8c0,0,0-0.1,0-0.1c0,0,0-0.1,0-0.1c0-1.7-1.3-3-3-3H12.2c-1.3,0-2.4,0.8-2.8,1.9
	c-0.2,0.4-0.3,0.9-0.3,1.4v4.1c0,0.9,0,1.8,0.1,2.7c1,13,8.9,24.1,20,29.6c0.1,2.9,2.5,5.2,5.5,5.2c0,0,0.1,0,0.1,0c0,0,0,0,0,0
	h21.8c0.3,0,0.5,0,0.7-0.1c2.4-0.4,4.2-2.4,4.5-4.9c6.4-3,11.8-7.9,15.4-13.9c0.3,0.1,0.6,0.2,0.9,0.2h5.3c5.5,0,10-4.5,10-10
	C93.5,33.4,89,28.9,83.5,28.9z M76.3,30.5C76.1,46.8,62.8,60,46.5,60h-1.4c-16.3,0-29.6-13.2-29.8-29.5v-1.7h61L76.3,30.5L76.3,30.5
	z M83.5,43.5h-3.6c1.1-2.8,1.9-5.9,2.3-9h1.3c2.5,0,4.5,2,4.5,4.5C88,41.4,86,43.5,83.5,43.5z"/>
<path fill="#F2733F" d="M80.4,71.6H69.8H21.4H11.1c-0.1,0-0.2,0-0.3,0c0,3,2.5,5.5,5.5,5.5h9.4c0.2,1.4,1.3,2.4,2.7,2.4h34.6
	c1.4,0,2.6-1.1,2.7-2.4h9.5c3,0,5.5-2.4,5.5-5.5C80.7,71.6,80.6,71.6,80.4,71.6z"/>
</svg>
